<?xml version="1.0" encoding="utf-8" ?>
<svg xmlns="http://www.w3.org/2000/svg" xmlns:ev="http://www.w3.org/2001/xml-events" xmlns:xlink="http://www.w3.org/1999/xlink" baseProfile="full" height="960px" version="1.1" viewBox="0 0 1280 960" width="1280px">
  <title>SVecX Output</title>
  <desc>Semantic Vectorization</desc>
  <defs/>
  <g id="layer-1-semantic_layer_1">
    <path d="M 835.00,89.00 C 786.00,91.67 737.00,94.33 688.00,97.00 C 637.33,162.00 586.67,227.00 536.00,292.00 C 537.00,271.00 538.00,250.00 539.00,229.00 C 507.00,224.67 475.00,220.33 443.00,216.00 C 449.00,189.00 455.00,162.00 461.00,135.00 C 443.33,140.00 425.67,145.00 408.00,150.00 C 406.00,183.00 404.00,216.00 402.00,249.00 C 429.00,260.33 456.00,271.67 483.00,283.00 C 471.00,303.67 459.00,324.33 447.00,345.00 C 394.33,335.67 341.67,326.33 289.00,317.00 C 287.00,288.00 285.00,259.00 283.00,230.00 C 309.00,248.00 335.00,266.00 361.00,284.00 C 370.33,257.67 379.67,231.33 389.00,205.00 C 351.33,187.00 313.67,169.00 276.00,151.00 C 275.33,216.67 274.67,282.33 274.00,348.00 C 259.67,336.33 245.33,324.67 231.00,313.00 C 223.33,337.67 215.67,362.33 208.00,387.00 C 199.67,339.00 191.33,291.00 183.00,243.00 C 209.33,253.67 235.67,264.33 262.00,275.00 C 263.33,234.67 264.67,194.33 266.00,154.00 C 233.33,138.33 200.67,122.67 168.00,107.00 C 174.67,185.33 181.33,263.67 188.00,342.00 C 125.33,354.33 62.67,366.67 0.00,379.00 C 105.33,420.00 210.67,461.00 316.00,502.00 C 301.67,480.33 287.33,458.67 273.00,437.00 C 336.67,447.00 400.33,457.00 464.00,467.00 C 470.33,443.67 476.67,420.33 483.00,397.00 C 485.67,424.33 488.33,451.67 491.00,479.00 C 446.67,483.00 402.33,487.00 358.00,491.00 C 409.00,508.67 460.00,526.33 511.00,544.00 C 495.00,525.00 479.00,506.00 463.00,487.00 C 534.00,482.67 605.00,478.33 676.00,474.00 C 664.67,536.33 653.33,598.67 642.00,661.00 C 650.67,611.33 659.33,561.67 668.00,512.00 C 694.33,518.00 720.67,524.00 747.00,530.00 C 762.67,496.67 778.33,463.33 794.00,430.00 C 806.67,449.33 819.33,468.67 832.00,488.00 C 833.00,433.33 834.00,378.67 835.00,324.00 C 786.67,280.33 738.33,236.67 690.00,193.00 C 703.00,166.00 716.00,139.00 729.00,112.00 C 762.67,130.33 796.33,148.67 830.00,167.00 C 831.67,141.00 833.33,115.00 835.00,89.00 Z" fill="#6A6059" fill-opacity="0.9" stroke="none"/>
    <path d="M 834.00,172.00 C 870.67,226.67 907.33,281.33 944.00,336.00 C 937.00,338.00 930.00,340.00 923.00,342.00 C 938.67,375.00 954.33,408.00 970.00,441.00 C 964.67,470.00 959.33,499.00 954.00,528.00 C 982.67,518.00 1011.33,508.00 1040.00,498.00 C 1018.67,494.33 997.33,490.67 976.00,487.00 C 979.67,476.00 983.33,465.00 987.00,454.00 C 1078.67,444.67 1170.33,435.33 1262.00,426.00 C 1250.00,427.67 1238.00,429.33 1226.00,431.00 C 1237.00,434.00 1248.00,437.00 1259.00,440.00 C 1252.67,455.00 1246.33,470.00 1240.00,485.00 C 1223.67,484.00 1207.33,483.00 1191.00,482.00 C 1208.33,485.33 1225.67,488.67 1243.00,492.00 C 1239.33,504.33 1235.67,516.67 1232.00,529.00 C 1167.33,522.00 1102.67,515.00 1038.00,508.00 C 1100.67,519.67 1163.33,531.33 1226.00,543.00 C 1203.33,542.00 1180.67,541.00 1158.00,540.00 C 1177.00,544.33 1196.00,548.67 1215.00,553.00 C 1209.67,575.00 1204.33,597.00 1199.00,619.00 C 1225.67,555.33 1252.33,491.67 1279.00,428.00 C 1279.00,404.33 1279.00,380.67 1279.00,357.00 C 1268.67,364.67 1258.33,372.33 1248.00,380.00 C 1258.33,350.33 1268.67,320.67 1279.00,291.00 C 1264.33,303.33 1249.67,315.67 1235.00,328.00 C 1228.33,311.67 1221.67,295.33 1215.00,279.00 C 1202.00,292.00 1189.00,305.00 1176.00,318.00 C 1168.00,297.33 1160.00,276.67 1152.00,256.00 C 1143.67,271.33 1135.33,286.67 1127.00,302.00 C 1126.33,285.67 1125.67,269.33 1125.00,253.00 C 1144.67,249.33 1164.33,245.67 1184.00,242.00 C 1177.00,234.33 1170.00,226.67 1163.00,219.00 C 1173.67,214.33 1184.33,209.67 1195.00,205.00 C 1168.67,198.00 1142.33,191.00 1116.00,184.00 C 1115.33,221.33 1114.67,258.67 1114.00,296.00 C 1100.67,299.67 1087.33,303.33 1074.00,307.00 C 1067.67,331.33 1061.33,355.67 1055.00,380.00 C 1051.00,349.00 1047.00,318.00 1043.00,287.00 C 1026.33,307.33 1009.67,327.67 993.00,348.00 C 996.67,357.67 1000.33,367.33 1004.00,377.00 C 990.67,377.00 977.33,377.00 964.00,377.00 C 965.33,331.00 966.67,285.00 968.00,239.00 C 962.33,247.67 956.67,256.33 951.00,265.00 C 932.00,238.00 913.00,211.00 894.00,184.00 C 882.33,192.00 870.67,200.00 859.00,208.00 C 850.67,196.00 842.33,184.00 834.00,172.00 Z" fill="#6A6059" fill-opacity="0.9" stroke="none"/>
    <path d="M 880.00,765.00 C 875.67,773.00 871.33,781.00 867.00,789.00 C 862.67,816.67 858.33,844.33 854.00,872.00 C 854.00,885.00 854.00,898.00 854.00,911.00 C 856.67,921.67 859.33,932.33 862.00,943.00 C 869.00,948.33 876.00,953.67 883.00,959.00 C 897.33,959.00 911.67,959.00 926.00,959.00 C 914.33,949.00 902.67,939.00 891.00,929.00 C 898.00,923.67 905.00,918.33 912.00,913.00 C 931.67,928.33 951.33,943.67 971.00,959.00 C 985.67,959.00 1000.33,959.00 1015.00,959.00 C 1010.67,955.33 1006.33,951.67 1002.00,948.00 C 1006.00,944.00 1010.00,940.00 1014.00,936.00 C 1027.67,943.67 1041.33,951.33 1055.00,959.00 C 1068.33,959.00 1081.67,959.00 1095.00,959.00 C 1074.33,930.67 1053.67,902.33 1033.00,874.00 C 1007.00,844.33 981.00,814.67 955.00,785.00 C 954.33,781.67 953.67,778.33 953.00,775.00 C 957.33,771.00 961.67,767.00 966.00,763.00 C 966.00,760.67 966.00,758.33 966.00,756.00 C 960.00,755.67 954.00,755.33 948.00,755.00 C 938.00,759.67 928.00,764.33 918.00,769.00 C 910.00,765.33 902.00,761.67 894.00,758.00 C 889.33,760.33 884.67,762.67 880.00,765.00 Z" fill="#6A6059" fill-opacity="0.9" stroke="none"/>
    <path d="M 0.00,128.00 C 0.00,159.67 0.00,191.33 0.00,223.00 C 2.33,221.00 4.67,219.00 7.00,217.00 C 4.67,220.33 2.33,223.67 0.00,227.00 C 0.00,256.00 0.00,285.00 0.00,314.00 C 2.33,314.67 4.67,315.33 7.00,316.00 C 4.67,318.33 2.33,320.67 0.00,323.00 C 9.33,324.00 18.67,325.00 28.00,326.00 C 22.33,332.00 16.67,338.00 11.00,344.00 C 39.67,344.67 68.33,345.33 97.00,346.00 C 98.00,341.67 99.00,337.33 100.00,333.00 C 106.33,332.67 112.67,332.33 119.00,332.00 C 117.33,329.00 115.67,326.00 114.00,323.00 C 117.00,318.67 120.00,314.33 123.00,310.00 C 112.67,308.00 102.33,306.00 92.00,304.00 C 87.67,307.00 83.33,310.00 79.00,313.00 C 77.33,309.00 75.67,305.00 74.00,301.00 C 78.00,301.00 82.00,301.00 86.00,301.00 C 85.00,297.67 84.00,294.33 83.00,291.00 C 75.00,294.00 67.00,297.00 59.00,300.00 C 59.67,303.67 60.33,307.33 61.00,311.00 C 55.67,311.00 50.33,311.00 45.00,311.00 C 42.00,300.67 39.00,290.33 36.00,280.00 C 40.33,278.00 44.67,276.00 49.00,274.00 C 43.33,274.00 37.67,274.00 32.00,274.00 C 32.00,267.00 32.00,260.00 32.00,253.00 C 24.00,243.67 16.00,234.33 8.00,225.00 C 13.33,220.67 18.67,216.33 24.00,212.00 C 25.00,218.33 26.00,224.67 27.00,231.00 C 30.00,234.33 33.00,237.67 36.00,241.00 C 38.67,236.00 41.33,231.00 44.00,226.00 C 46.33,234.00 48.67,242.00 51.00,250.00 C 54.33,250.00 57.67,250.00 61.00,250.00 C 56.67,246.67 52.33,243.33 48.00,240.00 C 51.33,241.00 54.67,242.00 58.00,243.00 C 61.00,239.33 64.00,235.67 67.00,232.00 C 66.67,238.00 66.33,244.00 66.00,250.00 C 68.67,252.00 71.33,254.00 74.00,256.00 C 78.67,255.00 83.33,254.00 88.00,253.00 C 83.00,250.33 78.00,247.67 73.00,245.00 C 75.33,240.33 77.67,235.67 80.00,231.00 C 85.67,235.00 91.33,239.00 97.00,243.00 C 101.67,242.33 106.33,241.67 111.00,241.00 C 112.33,243.33 113.67,245.67 115.00,248.00 C 117.33,245.00 119.67,242.00 122.00,239.00 C 125.33,241.33 128.67,243.67 132.00,246.00 C 128.67,242.67 125.33,239.33 122.00,236.00 C 125.33,234.00 128.67,232.00 132.00,230.00 C 129.33,221.00 126.67,212.00 124.00,203.00 C 126.67,198.00 129.33,193.00 132.00,188.00 C 117.00,185.33 102.00,182.67 87.00,180.00 C 85.00,167.67 83.00,155.33 81.00,143.00 C 65.67,140.67 50.33,138.33 35.00,136.00 C 32.00,133.00 29.00,130.00 26.00,127.00 C 17.33,127.33 8.67,127.67 0.00,128.00 Z" fill="#6A6059" fill-opacity="0.9" stroke="none"/>
    <path d="M 1240.00,7.00 C 1236.00,4.67 1232.00,2.33 1228.00,0.00 C 1189.67,1.33 1151.33,2.67 1113.00,4.00 C 1118.67,6.33 1124.33,8.67 1130.00,11.00 C 1127.67,13.33 1125.33,15.67 1123.00,18.00 C 1125.00,21.33 1127.00,24.67 1129.00,28.00 C 1120.33,32.67 1111.67,37.33 1103.00,42.00 C 1102.00,39.00 1101.00,36.00 1100.00,33.00 C 1102.67,32.67 1105.33,32.33 1108.00,32.00 C 1103.33,27.33 1098.67,22.67 1094.00,18.00 C 1098.33,14.67 1102.67,11.33 1107.00,8.00 C 1104.67,5.33 1102.33,2.67 1100.00,0.00 C 1094.00,0.00 1088.00,0.00 1082.00,0.00 C 1083.67,7.67 1085.33,15.33 1087.00,23.00 C 1090.33,24.67 1093.67,26.33 1097.00,28.00 C 1092.67,37.00 1088.33,46.00 1084.00,55.00 C 1087.67,56.33 1091.33,57.67 1095.00,59.00 C 1091.33,62.67 1087.67,66.33 1084.00,70.00 C 1089.67,70.33 1095.33,70.67 1101.00,71.00 C 1102.67,90.67 1104.33,110.33 1106.00,130.00 C 1100.33,133.67 1094.67,137.33 1089.00,141.00 C 1090.33,147.33 1091.67,153.67 1093.00,160.00 C 1090.33,160.67 1087.67,161.33 1085.00,162.00 C 1086.00,154.00 1087.00,146.00 1088.00,138.00 C 1085.00,133.00 1082.00,128.00 1079.00,123.00 C 1081.67,139.00 1084.33,155.00 1087.00,171.00 C 1085.00,178.33 1083.00,185.67 1081.00,193.00 C 1084.33,193.33 1087.67,193.67 1091.00,194.00 C 1096.00,186.33 1101.00,178.67 1106.00,171.00 C 1112.00,169.67 1118.00,168.33 1124.00,167.00 C 1129.67,154.67 1135.33,142.33 1141.00,130.00 C 1129.33,135.33 1117.67,140.67 1106.00,146.00 C 1108.33,140.67 1110.67,135.33 1113.00,130.00 C 1116.67,129.00 1120.33,128.00 1124.00,127.00 C 1121.00,124.00 1118.00,121.00 1115.00,118.00 C 1112.33,121.33 1109.67,124.67 1107.00,128.00 C 1109.67,109.67 1112.33,91.33 1115.00,73.00 C 1117.67,73.00 1120.33,73.00 1123.00,73.00 C 1122.00,76.33 1121.00,79.67 1120.00,83.00 C 1122.33,80.67 1124.67,78.33 1127.00,76.00 C 1128.67,78.00 1130.33,80.00 1132.00,82.00 C 1132.33,97.33 1132.67,112.67 1133.00,128.00 C 1139.67,105.33 1146.33,82.67 1153.00,60.00 C 1157.67,58.67 1162.33,57.33 1167.00,56.00 C 1171.33,59.33 1175.67,62.67 1180.00,66.00 C 1189.67,63.33 1199.33,60.67 1209.00,58.00 C 1204.00,57.67 1199.00,57.33 1194.00,57.00 C 1192.67,52.33 1191.33,47.67 1190.00,43.00 C 1186.67,43.33 1183.33,43.67 1180.00,44.00 C 1183.00,40.00 1186.00,36.00 1189.00,32.00 C 1188.00,28.33 1187.00,24.67 1186.00,21.00 C 1189.67,24.00 1193.33,27.00 1197.00,30.00 C 1203.00,23.67 1209.00,17.33 1215.00,11.00 C 1221.67,12.33 1228.33,13.67 1235.00,15.00 C 1236.67,12.33 1238.33,9.67 1240.00,7.00 Z" fill="#6A6059" fill-opacity="0.9" stroke="none"/>
    <path d="M 1018.00,586.00 C 1030.67,593.33 1043.33,600.67 1056.00,608.00 C 1069.67,620.00 1083.33,632.00 1097.00,644.00 C 1123.33,671.67 1149.67,699.33 1176.00,727.00 C 1180.33,726.00 1184.67,725.00 1189.00,724.00 C 1198.00,728.67 1207.00,733.33 1216.00,738.00 C 1216.33,740.00 1216.67,742.00 1217.00,744.00 C 1220.33,741.33 1223.67,738.67 1227.00,736.00 C 1224.67,735.00 1222.33,734.00 1220.00,733.00 C 1221.00,730.33 1222.00,727.67 1223.00,725.00 C 1217.67,720.33 1212.33,715.67 1207.00,711.00 C 1203.00,711.33 1199.00,711.67 1195.00,712.00 C 1195.67,714.33 1196.33,716.67 1197.00,719.00 C 1192.00,718.00 1187.00,717.00 1182.00,716.00 C 1183.00,714.67 1184.00,713.33 1185.00,712.00 C 1183.00,709.33 1181.00,706.67 1179.00,704.00 C 1174.33,703.33 1169.67,702.67 1165.00,702.00 C 1164.00,700.33 1163.00,698.67 1162.00,697.00 C 1162.67,692.67 1163.33,688.33 1164.00,684.00 C 1168.33,685.00 1172.67,686.00 1177.00,687.00 C 1174.33,681.00 1171.67,675.00 1169.00,669.00 C 1171.67,660.67 1174.33,652.33 1177.00,644.00 C 1182.33,642.33 1187.67,640.67 1193.00,639.00 C 1194.67,636.00 1196.33,633.00 1198.00,630.00 C 1197.00,627.33 1196.00,624.67 1195.00,622.00 C 1194.33,624.67 1193.67,627.33 1193.00,630.00 C 1190.33,631.33 1187.67,632.67 1185.00,634.00 C 1175.33,631.67 1165.67,629.33 1156.00,627.00 C 1157.67,624.67 1159.33,622.33 1161.00,620.00 C 1148.00,615.67 1135.00,611.33 1122.00,607.00 C 1121.33,605.67 1120.67,604.33 1120.00,603.00 C 1122.67,601.00 1125.33,599.00 1128.00,597.00 C 1136.33,597.00 1144.67,597.00 1153.00,597.00 C 1149.67,595.00 1146.33,593.00 1143.00,591.00 C 1129.33,595.33 1115.67,599.67 1102.00,604.00 C 1100.67,601.67 1099.33,599.33 1098.00,597.00 C 1087.67,593.33 1077.33,589.67 1067.00,586.00 C 1060.33,588.67 1053.67,591.33 1047.00,594.00 C 1037.33,591.33 1027.67,588.67 1018.00,586.00 Z" fill="#6A6059" fill-opacity="0.9" stroke="none"/>
    <path d="M 1019.00,0.00 C 1016.33,0.00 1013.67,0.00 1011.00,0.00 C 1010.67,1.00 1010.33,2.00 1010.00,3.00 C 1010.33,5.33 1010.67,7.67 1011.00,10.00 C 1010.33,10.67 1009.67,11.33 1009.00,12.00 C 1011.33,15.00 1013.67,18.00 1016.00,21.00 C 1015.67,25.67 1015.33,30.33 1015.00,35.00 C 1013.67,35.00 1012.33,35.00 1011.00,35.00 C 1010.00,34.00 1009.00,33.00 1008.00,32.00 C 1008.00,30.33 1008.00,28.67 1008.00,27.00 C 1005.33,23.67 1002.67,20.33 1000.00,17.00 C 999.00,19.00 998.00,21.00 997.00,23.00 C 998.00,24.00 999.00,25.00 1000.00,26.00 C 1000.00,27.67 1000.00,29.33 1000.00,31.00 C 1001.67,33.67 1003.33,36.33 1005.00,39.00 C 1006.33,39.00 1007.67,39.00 1009.00,39.00 C 1011.00,41.00 1013.00,43.00 1015.00,45.00 C 1015.33,49.33 1015.67,53.67 1016.00,58.00 C 1013.33,65.00 1010.67,72.00 1008.00,79.00 C 1006.67,80.00 1005.33,81.00 1004.00,82.00 C 1004.67,84.67 1005.33,87.33 1006.00,90.00 C 1002.67,98.67 999.33,107.33 996.00,116.00 C 993.67,116.33 991.33,116.67 989.00,117.00 C 988.67,112.33 988.33,107.67 988.00,103.00 C 988.67,102.33 989.33,101.67 990.00,101.00 C 989.67,100.00 989.33,99.00 989.00,98.00 C 987.67,97.33 986.33,96.67 985.00,96.00 C 984.33,97.00 983.67,98.00 983.00,99.00 C 983.33,101.00 983.67,103.00 984.00,105.00 C 982.67,106.33 981.33,107.67 980.00,109.00 C 981.33,110.33 982.67,111.67 984.00,113.00 C 984.33,115.00 984.67,117.00 985.00,119.00 C 988.33,119.67 991.67,120.33 995.00,121.00 C 995.00,122.67 995.00,124.33 995.00,126.00 C 992.33,126.33 989.67,126.67 987.00,127.00 C 987.00,130.33 987.00,133.67 987.00,137.00 C 985.67,138.67 984.33,140.33 983.00,142.00 C 983.67,143.33 984.33,144.67 985.00,146.00 C 986.33,145.00 987.67,144.00 989.00,143.00 C 990.00,139.67 991.00,136.33 992.00,133.00 C 994.00,132.67 996.00,132.33 998.00,132.00 C 998.33,128.00 998.67,124.00 999.00,120.00 C 1000.00,119.33 1001.00,118.67 1002.00,118.00 C 1001.33,116.67 1000.67,115.33 1000.00,114.00 C 1001.33,110.33 1002.67,106.67 1004.00,103.00 C 1005.33,101.33 1006.67,99.67 1008.00,98.00 C 1007.67,97.00 1007.33,96.00 1007.00,95.00 C 1008.00,94.33 1009.00,93.67 1010.00,93.00 C 1009.33,91.67 1008.67,90.33 1008.00,89.00 C 1011.67,77.00 1015.33,65.00 1019.00,53.00 C 1020.67,50.33 1022.33,47.67 1024.00,45.00 C 1028.00,42.67 1032.00,40.33 1036.00,38.00 C 1035.33,37.33 1034.67,36.67 1034.00,36.00 C 1034.00,34.67 1034.00,33.33 1034.00,32.00 C 1035.00,31.00 1036.00,30.00 1037.00,29.00 C 1036.67,24.00 1036.33,19.00 1036.00,14.00 C 1037.67,12.00 1039.33,10.00 1041.00,8.00 C 1039.00,7.00 1037.00,6.00 1035.00,5.00 C 1034.00,6.67 1033.00,8.33 1032.00,10.00 C 1030.67,10.33 1029.33,10.67 1028.00,11.00 C 1026.67,9.00 1025.33,7.00 1024.00,5.00 C 1022.00,5.33 1020.00,5.67 1018.00,6.00 C 1017.67,5.00 1017.33,4.00 1017.00,3.00 C 1017.67,2.00 1018.33,1.00 1019.00,0.00 Z" fill="#6A6059" fill-opacity="0.9" stroke="none"/>
  </g>
  <g id="layer-2-semantic_layer_2">
    <path d="M 265.00,642.00 C 255.67,640.67 246.33,639.33 237.00,638.00 C 227.00,645.33 217.00,652.67 207.00,660.00 C 207.67,655.33 208.33,650.67 209.00,646.00 C 204.00,645.67 199.00,645.33 194.00,645.00 C 187.67,637.33 181.33,629.67 175.00,622.00 C 162.33,628.00 149.67,634.00 137.00,640.00 C 129.00,637.00 121.00,634.00 113.00,631.00 C 113.00,635.67 113.00,640.33 113.00,645.00 C 107.00,647.67 101.00,650.33 95.00,653.00 C 96.00,657.67 97.00,662.33 98.00,667.00 C 95.67,663.67 93.33,660.33 91.00,657.00 C 91.33,663.00 91.67,669.00 92.00,675.00 C 101.00,676.00 110.00,677.00 119.00,678.00 C 113.00,682.00 107.00,686.00 101.00,690.00 C 103.33,692.67 105.67,695.33 108.00,698.00 C 85.67,707.00 63.33,716.00 41.00,725.00 C 44.33,723.67 47.67,722.33 51.00,721.00 C 46.67,718.67 42.33,716.33 38.00,714.00 C 31.33,718.67 24.67,723.33 18.00,728.00 C 12.00,725.67 6.00,723.33 0.00,721.00 C 0.00,728.33 0.00,735.67 0.00,743.00 C 2.67,740.33 5.33,737.67 8.00,735.00 C 7.33,740.33 6.67,745.67 6.00,751.00 C 9.67,752.33 13.33,753.67 17.00,755.00 C 11.33,756.33 5.67,757.67 0.00,759.00 C 0.00,766.33 0.00,773.67 0.00,781.00 C 4.33,780.00 8.67,779.00 13.00,778.00 C 12.33,784.00 11.67,790.00 11.00,796.00 C 7.33,795.67 3.67,795.33 0.00,795.00 C 0.00,849.67 0.00,904.33 0.00,959.00 C 109.67,959.00 219.33,959.00 329.00,959.00 C 319.67,956.67 310.33,954.33 301.00,952.00 C 284.33,939.33 267.67,926.67 251.00,914.00 C 244.00,897.67 237.00,881.33 230.00,865.00 C 228.33,853.00 226.67,841.00 225.00,829.00 C 228.00,824.33 231.00,819.67 234.00,815.00 C 228.67,810.00 223.33,805.00 218.00,800.00 C 222.67,799.67 227.33,799.33 232.00,799.00 C 232.00,802.00 232.00,805.00 232.00,808.00 C 235.67,804.00 239.33,800.00 243.00,796.00 C 235.00,774.67 227.00,753.33 219.00,732.00 C 234.33,702.00 249.67,672.00 265.00,642.00 Z" fill="#AFA299" fill-opacity="0.9" stroke="none"/>
    <path d="M 1049.00,623.00 C 1036.33,626.00 1023.67,629.00 1011.00,632.00 C 1003.33,628.67 995.67,625.33 988.00,622.00 C 971.33,627.33 954.67,632.67 938.00,638.00 C 926.33,662.00 914.67,686.00 903.00,710.00 C 900.00,699.67 897.00,689.33 894.00,679.00 C 903.00,661.33 912.00,643.67 921.00,626.00 C 919.33,621.67 917.67,617.33 916.00,613.00 C 929.00,594.33 942.00,575.67 955.00,557.00 C 949.00,559.67 943.00,562.33 937.00,565.00 C 921.67,587.67 906.33,610.33 891.00,633.00 C 885.33,666.67 879.67,700.33 874.00,734.00 C 864.67,729.67 855.33,725.33 846.00,721.00 C 838.67,730.67 831.33,740.33 824.00,750.00 C 803.67,762.67 783.33,775.33 763.00,788.00 C 749.67,786.00 736.33,784.00 723.00,782.00 C 710.67,760.33 698.33,738.67 686.00,717.00 C 681.00,716.00 676.00,715.00 671.00,714.00 C 675.33,740.00 679.67,766.00 684.00,792.00 C 678.67,791.00 673.33,790.00 668.00,789.00 C 667.67,809.33 667.33,829.67 667.00,850.00 C 663.00,852.67 659.00,855.33 655.00,858.00 C 659.67,859.67 664.33,861.33 669.00,863.00 C 668.67,873.33 668.33,883.67 668.00,894.00 C 644.00,910.00 620.00,926.00 596.00,942.00 C 609.33,938.00 622.67,934.00 636.00,930.00 C 622.00,939.67 608.00,949.33 594.00,959.00 C 690.33,959.00 786.67,959.00 883.00,959.00 C 874.33,951.33 865.67,943.67 857.00,936.00 C 855.33,924.00 853.67,912.00 852.00,900.00 C 857.67,860.00 863.33,820.00 869.00,780.00 C 873.67,774.00 878.33,768.00 883.00,762.00 C 891.33,763.00 899.67,764.00 908.00,765.00 C 921.00,738.33 934.00,711.67 947.00,685.00 C 958.00,682.33 969.00,679.67 980.00,677.00 C 993.00,684.67 1006.00,692.33 1019.00,700.00 C 1016.67,693.67 1014.33,687.33 1012.00,681.00 C 1021.00,675.67 1030.00,670.33 1039.00,665.00 C 1042.33,651.00 1045.67,637.00 1049.00,623.00 Z" fill="#AFA299" fill-opacity="0.9" stroke="none"/>
    <path d="M 1260.00,440.00 C 1231.00,436.00 1202.00,432.00 1173.00,428.00 C 1170.00,429.33 1167.00,430.67 1164.00,432.00 C 1168.33,434.67 1172.67,437.33 1177.00,440.00 C 1140.33,440.00 1103.67,440.00 1067.00,440.00 C 1046.67,443.00 1026.33,446.00 1006.00,449.00 C 1003.67,452.00 1001.33,455.00 999.00,458.00 C 991.00,456.67 983.00,455.33 975.00,454.00 C 975.67,465.00 976.33,476.00 977.00,487.00 C 985.33,487.67 993.67,488.33 1002.00,489.00 C 1006.67,483.33 1011.33,477.67 1016.00,472.00 C 1020.67,475.33 1025.33,478.67 1030.00,482.00 C 1034.33,477.67 1038.67,473.33 1043.00,469.00 C 1049.67,472.67 1056.33,476.33 1063.00,480.00 C 1069.33,479.00 1075.67,478.00 1082.00,477.00 C 1083.33,479.00 1084.67,481.00 1086.00,483.00 C 1082.67,484.00 1079.33,485.00 1076.00,486.00 C 1083.00,489.00 1090.00,492.00 1097.00,495.00 C 1090.67,497.00 1084.33,499.00 1078.00,501.00 C 1077.33,498.00 1076.67,495.00 1076.00,492.00 C 1065.00,491.67 1054.00,491.33 1043.00,491.00 C 1033.00,495.67 1023.00,500.33 1013.00,505.00 C 1013.67,507.67 1014.33,510.33 1015.00,513.00 C 1000.00,510.33 985.00,507.67 970.00,505.00 C 967.67,513.00 965.33,521.00 963.00,529.00 C 983.33,536.00 1003.67,543.00 1024.00,550.00 C 1014.33,549.67 1004.67,549.33 995.00,549.00 C 988.67,556.00 982.33,563.00 976.00,570.00 C 981.67,569.33 987.33,568.67 993.00,568.00 C 1002.00,575.00 1011.00,582.00 1020.00,589.00 C 1034.33,588.00 1048.67,587.00 1063.00,586.00 C 1076.67,592.00 1090.33,598.00 1104.00,604.00 C 1109.33,602.67 1114.67,601.33 1120.00,600.00 C 1133.33,606.00 1146.67,612.00 1160.00,618.00 C 1158.33,621.00 1156.67,624.00 1155.00,627.00 C 1166.33,629.67 1177.67,632.33 1189.00,635.00 C 1194.00,614.00 1199.00,593.00 1204.00,572.00 C 1210.33,568.67 1216.67,565.33 1223.00,562.00 C 1202.67,555.33 1182.33,548.67 1162.00,542.00 C 1169.00,540.00 1176.00,538.00 1183.00,536.00 C 1172.33,532.33 1161.67,528.67 1151.00,525.00 C 1156.33,522.67 1161.67,520.33 1167.00,518.00 C 1189.33,523.00 1211.67,528.00 1234.00,533.00 C 1238.67,520.33 1243.33,507.67 1248.00,495.00 C 1246.00,489.00 1244.00,483.00 1242.00,477.00 C 1245.33,475.33 1248.67,473.67 1252.00,472.00 C 1254.67,461.33 1257.33,450.67 1260.00,440.00 Z" fill="#AFA299" fill-opacity="0.9" stroke="none"/>
    <path d="M 0.00,483.00 C 0.00,497.00 0.00,511.00 0.00,525.00 C 6.00,529.33 12.00,533.67 18.00,538.00 C 35.00,535.33 52.00,532.67 69.00,530.00 C 68.67,523.67 68.33,517.33 68.00,511.00 C 75.00,514.00 82.00,517.00 89.00,520.00 C 90.67,515.33 92.33,510.67 94.00,506.00 C 101.00,509.00 108.00,512.00 115.00,515.00 C 114.00,511.00 113.00,507.00 112.00,503.00 C 137.00,501.67 162.00,500.33 187.00,499.00 C 194.67,503.33 202.33,507.67 210.00,512.00 C 189.00,519.33 168.00,526.67 147.00,534.00 C 167.33,540.67 187.67,547.33 208.00,554.00 C 209.33,545.33 210.67,536.67 212.00,528.00 C 230.67,528.00 249.33,528.00 268.00,528.00 C 280.67,522.33 293.33,516.67 306.00,511.00 C 317.00,525.67 328.00,540.33 339.00,555.00 C 318.00,547.33 297.00,539.67 276.00,532.00 C 268.67,543.33 261.33,554.67 254.00,566.00 C 235.33,563.33 216.67,560.67 198.00,558.00 C 176.33,571.00 154.67,584.00 133.00,597.00 C 120.67,596.33 108.33,595.67 96.00,595.00 C 99.00,600.67 102.00,606.33 105.00,612.00 C 127.00,613.00 149.00,614.00 171.00,615.00 C 168.67,606.67 166.33,598.33 164.00,590.00 C 174.33,590.33 184.67,590.67 195.00,591.00 C 193.33,583.67 191.67,576.33 190.00,569.00 C 210.00,575.67 230.00,582.33 250.00,589.00 C 246.67,593.67 243.33,598.33 240.00,603.00 C 247.00,603.00 254.00,603.00 261.00,603.00 C 264.33,612.00 267.67,621.00 271.00,630.00 C 289.00,610.00 307.00,590.00 325.00,570.00 C 322.67,566.33 320.33,562.67 318.00,559.00 C 359.33,543.00 400.67,527.00 442.00,511.00 C 431.33,512.00 420.67,513.00 410.00,514.00 C 396.67,505.33 383.33,496.67 370.00,488.00 C 355.00,488.67 340.00,489.33 325.00,490.00 C 305.00,475.00 285.00,460.00 265.00,445.00 C 234.67,441.33 204.33,437.67 174.00,434.00 C 126.33,440.00 78.67,446.00 31.00,452.00 C 36.67,472.33 42.33,492.67 48.00,513.00 C 40.67,501.33 33.33,489.67 26.00,478.00 C 27.67,490.33 29.33,502.67 31.00,515.00 C 25.00,515.33 19.00,515.67 13.00,516.00 C 8.67,505.00 4.33,494.00 0.00,483.00 Z" fill="#AFA299" fill-opacity="0.9" stroke="none"/>
    <path d="M 924.00,520.00 C 904.67,513.33 885.33,506.67 866.00,500.00 C 860.00,494.67 854.00,489.33 848.00,484.00 C 840.00,486.00 832.00,488.00 824.00,490.00 C 814.33,470.00 804.67,450.00 795.00,430.00 C 779.33,463.33 763.67,496.67 748.00,530.00 C 739.00,533.67 730.00,537.33 721.00,541.00 C 719.33,534.33 717.67,527.67 716.00,521.00 C 702.33,517.67 688.67,514.33 675.00,511.00 C 670.67,514.33 666.33,517.67 662.00,521.00 C 663.33,530.33 664.67,539.67 666.00,549.00 C 660.00,559.67 654.00,570.33 648.00,581.00 C 647.33,607.00 646.67,633.00 646.00,659.00 C 639.00,655.67 632.00,652.33 625.00,649.00 C 622.33,639.67 619.67,630.33 617.00,621.00 C 614.00,623.00 611.00,625.00 608.00,627.00 C 598.33,608.00 588.67,589.00 579.00,570.00 C 580.33,579.67 581.67,589.33 583.00,599.00 C 576.67,595.33 570.33,591.67 564.00,588.00 C 560.33,590.67 556.67,593.33 553.00,596.00 C 574.33,611.67 595.67,627.33 617.00,643.00 C 616.33,646.67 615.67,650.33 615.00,654.00 C 609.67,648.33 604.33,642.67 599.00,637.00 C 599.33,644.67 599.67,652.33 600.00,660.00 C 608.67,665.67 617.33,671.33 626.00,677.00 C 623.00,686.00 620.00,695.00 617.00,704.00 C 621.00,701.00 625.00,698.00 629.00,695.00 C 632.33,699.33 635.67,703.67 639.00,708.00 C 637.33,696.67 635.67,685.33 634.00,674.00 C 640.67,686.67 647.33,699.33 654.00,712.00 C 656.00,706.00 658.00,700.00 660.00,694.00 C 657.00,688.33 654.00,682.67 651.00,677.00 C 659.00,677.00 667.00,677.00 675.00,677.00 C 709.67,633.00 744.33,589.00 779.00,545.00 C 773.67,539.00 768.33,533.00 763.00,527.00 C 775.00,525.33 787.00,523.67 799.00,522.00 C 808.33,513.00 817.67,504.00 827.00,495.00 C 833.00,499.00 839.00,503.00 845.00,507.00 C 844.33,513.67 843.67,520.33 843.00,527.00 C 855.33,523.33 867.67,519.67 880.00,516.00 C 894.67,517.33 909.33,518.67 924.00,520.00 Z" fill="#AFA299" fill-opacity="0.9" stroke="none"/>
    <path d="M 401.00,135.00 C 403.33,143.33 405.67,151.67 408.00,160.00 C 405.33,163.67 402.67,167.33 400.00,171.00 C 405.67,173.00 411.33,175.00 417.00,177.00 C 411.67,180.67 406.33,184.33 401.00,188.00 C 411.33,187.00 421.67,186.00 432.00,185.00 C 432.67,189.33 433.33,193.67 434.00,198.00 C 435.67,194.00 437.33,190.00 439.00,186.00 C 441.00,193.00 443.00,200.00 445.00,207.00 C 452.67,204.33 460.33,201.67 468.00,199.00 C 470.33,202.00 472.67,205.00 475.00,208.00 C 471.33,212.33 467.67,216.67 464.00,221.00 C 456.00,218.00 448.00,215.00 440.00,212.00 C 441.00,223.67 442.00,235.33 443.00,247.00 C 447.00,249.00 451.00,251.00 455.00,253.00 C 453.67,247.33 452.33,241.67 451.00,236.00 C 455.00,240.33 459.00,244.67 463.00,249.00 C 469.67,242.00 476.33,235.00 483.00,228.00 C 480.00,234.67 477.00,241.33 474.00,248.00 C 478.00,248.00 482.00,248.00 486.00,248.00 C 487.00,253.00 488.00,258.00 489.00,263.00 C 489.67,259.67 490.33,256.33 491.00,253.00 C 494.33,254.67 497.67,256.33 501.00,258.00 C 498.00,267.00 495.00,276.00 492.00,285.00 C 496.00,283.00 500.00,281.00 504.00,279.00 C 503.33,271.67 502.67,264.33 502.00,257.00 C 505.00,262.33 508.00,267.67 511.00,273.00 C 516.00,271.67 521.00,270.33 526.00,269.00 C 529.33,278.00 532.67,287.00 536.00,296.00 C 542.33,294.33 548.67,292.67 555.00,291.00 C 556.00,286.00 557.00,281.00 558.00,276.00 C 561.00,279.67 564.00,283.33 567.00,287.00 C 571.33,283.67 575.67,280.33 580.00,277.00 C 584.33,279.33 588.67,281.67 593.00,284.00 C 594.33,278.33 595.67,272.67 597.00,267.00 C 600.00,270.00 603.00,273.00 606.00,276.00 C 604.00,265.67 602.00,255.33 600.00,245.00 C 592.33,247.00 584.67,249.00 577.00,251.00 C 584.00,239.33 591.00,227.67 598.00,216.00 C 593.00,216.33 588.00,216.67 583.00,217.00 C 586.00,215.33 589.00,213.67 592.00,212.00 C 589.00,209.00 586.00,206.00 583.00,203.00 C 575.00,222.00 567.00,241.00 559.00,260.00 C 552.33,250.67 545.67,241.33 539.00,232.00 C 542.67,218.67 546.33,205.33 550.00,192.00 C 544.33,192.00 538.67,192.00 533.00,192.00 C 534.67,187.67 536.33,183.33 538.00,179.00 C 535.33,178.33 532.67,177.67 530.00,177.00 C 530.00,183.67 530.00,190.33 530.00,197.00 C 523.00,197.00 516.00,197.00 509.00,197.00 C 507.00,193.33 505.00,189.67 503.00,186.00 C 497.67,192.67 492.33,199.33 487.00,206.00 C 486.33,197.00 485.67,188.00 485.00,179.00 C 494.00,181.00 503.00,183.00 512.00,185.00 C 516.67,174.67 521.33,164.33 526.00,154.00 C 530.00,158.00 534.00,162.00 538.00,166.00 C 536.67,160.67 535.33,155.33 534.00,150.00 C 539.00,142.67 544.00,135.33 549.00,128.00 C 546.00,122.67 543.00,117.33 540.00,112.00 C 534.67,112.67 529.33,113.33 524.00,114.00 C 524.67,125.67 525.33,137.33 526.00,149.00 C 520.00,153.67 514.00,158.33 508.00,163.00 C 503.67,152.33 499.33,141.67 495.00,131.00 C 493.67,134.00 492.33,137.00 491.00,140.00 C 487.00,135.67 483.00,131.33 479.00,127.00 C 478.67,133.33 478.33,139.67 478.00,146.00 C 470.67,139.33 463.33,132.67 456.00,126.00 C 453.33,130.67 450.67,135.33 448.00,140.00 C 441.00,136.00 434.00,132.00 427.00,128.00 C 427.67,132.33 428.33,136.67 429.00,141.00 C 424.00,143.33 419.00,145.67 414.00,148.00 C 409.67,143.67 405.33,139.33 401.00,135.00 Z" fill="#AFA299" fill-opacity="0.9" stroke="none"/>
    <path d="M 805.00,304.00 C 795.67,307.67 786.33,311.33 777.00,315.00 C 779.67,317.67 782.33,320.33 785.00,323.00 C 776.00,327.00 767.00,331.00 758.00,335.00 C 748.33,332.67 738.67,330.33 729.00,328.00 C 723.67,322.33 718.33,316.67 713.00,311.00 C 710.67,311.00 708.33,311.00 706.00,311.00 C 704.67,312.67 703.33,314.33 702.00,316.00 C 701.67,326.33 701.33,336.67 701.00,347.00 C 698.00,356.67 695.00,366.33 692.00,376.00 C 693.33,378.67 694.67,381.33 696.00,384.00 C 698.00,384.00 700.00,384.00 702.00,384.00 C 702.33,382.00 702.67,380.00 703.00,378.00 C 707.00,379.33 711.00,380.67 715.00,382.00 C 722.67,380.00 730.33,378.00 738.00,376.00 C 736.00,380.33 734.00,384.67 732.00,389.00 C 733.00,391.33 734.00,393.67 735.00,396.00 C 742.00,394.00 749.00,392.00 756.00,390.00 C 758.00,387.33 760.00,384.67 762.00,382.00 C 759.00,379.33 756.00,376.67 753.00,374.00 C 748.33,372.67 743.67,371.33 739.00,370.00 C 738.00,366.67 737.00,363.33 736.00,360.00 C 738.33,358.67 740.67,357.33 743.00,356.00 C 749.00,359.00 755.00,362.00 761.00,365.00 C 768.67,372.33 776.33,379.67 784.00,387.00 C 783.33,392.67 782.67,398.33 782.00,404.00 C 775.33,404.67 768.67,405.33 762.00,406.00 C 756.00,411.33 750.00,416.67 744.00,422.00 C 744.67,426.67 745.33,431.33 746.00,436.00 C 744.67,438.00 743.33,440.00 742.00,442.00 C 744.33,446.00 746.67,450.00 749.00,454.00 C 753.00,453.67 757.00,453.33 761.00,453.00 C 765.67,449.33 770.33,445.67 775.00,442.00 C 782.33,429.67 789.67,417.33 797.00,405.00 C 795.00,403.67 793.00,402.33 791.00,401.00 C 795.67,394.67 800.33,388.33 805.00,382.00 C 807.67,367.00 810.33,352.00 813.00,337.00 C 813.00,331.33 813.00,325.67 813.00,320.00 C 810.33,314.67 807.67,309.33 805.00,304.00 Z" fill="#AFA299" fill-opacity="0.9" stroke="none"/>
    <path d="M 670.00,230.00 C 670.00,233.67 670.00,237.33 670.00,241.00 C 674.67,244.00 679.33,247.00 684.00,250.00 C 684.00,251.33 684.00,252.67 684.00,254.00 C 682.67,256.33 681.33,258.67 680.00,261.00 C 680.33,262.67 680.67,264.33 681.00,266.00 C 682.33,267.33 683.67,268.67 685.00,270.00 C 684.67,271.67 684.33,273.33 684.00,275.00 C 688.67,274.67 693.33,274.33 698.00,274.00 C 700.00,275.33 702.00,276.67 704.00,278.00 C 708.00,277.33 712.00,276.67 716.00,276.00 C 718.67,278.00 721.33,280.00 724.00,282.00 C 735.00,279.00 746.00,276.00 757.00,273.00 C 764.67,272.67 772.33,272.33 780.00,272.00 C 781.00,272.67 782.00,273.33 783.00,274.00 C 784.67,273.33 786.33,272.67 788.00,272.00 C 788.33,270.00 788.67,268.00 789.00,266.00 C 779.00,254.00 769.00,242.00 759.00,230.00 C 756.67,226.33 754.33,222.67 752.00,219.00 C 748.00,216.00 744.00,213.00 740.00,210.00 C 734.00,209.33 728.00,208.67 722.00,208.00 C 719.33,209.33 716.67,210.67 714.00,212.00 C 705.00,214.00 696.00,216.00 687.00,218.00 C 683.33,221.33 679.67,224.67 676.00,228.00 C 674.00,228.67 672.00,229.33 670.00,230.00 Z" fill="#AFA299" fill-opacity="0.9" stroke="none"/>
  </g>
  <g id="layer-3-semantic_layer_3">
    <path d="M 0.00,490.00 C 23.67,500.67 47.33,511.33 71.00,522.00 C 47.33,523.33 23.67,524.67 0.00,526.00 C 6.00,635.00 12.00,744.00 18.00,853.00 C 64.67,818.67 111.33,784.33 158.00,750.00 C 182.33,779.33 206.67,808.67 231.00,838.00 C 212.67,807.33 194.33,776.67 176.00,746.00 C 193.00,751.33 210.00,756.67 227.00,762.00 C 282.33,693.33 337.67,624.67 393.00,556.00 C 432.00,571.67 471.00,587.33 510.00,603.00 C 495.33,582.67 480.67,562.33 466.00,542.00 C 518.67,570.33 571.33,598.67 624.00,627.00 C 642.00,713.33 660.00,799.67 678.00,886.00 C 675.67,828.33 673.33,770.67 671.00,713.00 C 694.67,738.33 718.33,763.67 742.00,789.00 C 784.33,772.00 826.67,755.00 869.00,738.00 C 896.33,678.67 923.67,619.33 951.00,560.00 C 935.00,609.67 919.00,659.33 903.00,709.00 C 918.33,683.33 933.67,657.67 949.00,632.00 C 982.00,637.67 1015.00,643.33 1048.00,649.00 C 1001.33,687.33 954.67,725.67 908.00,764.00 C 933.00,755.33 958.00,746.67 983.00,738.00 C 1021.67,811.67 1060.33,885.33 1099.00,959.00 C 1159.00,959.00 1219.00,959.00 1279.00,959.00 C 1279.00,915.33 1279.00,871.67 1279.00,828.00 C 1177.67,742.00 1076.33,656.00 975.00,570.00 C 1009.33,572.33 1043.67,574.67 1078.00,577.00 C 995.33,549.33 912.67,521.67 830.00,494.00 C 773.00,560.33 716.00,626.67 659.00,693.00 C 651.33,619.00 643.67,545.00 636.00,471.00 C 594.00,495.67 552.00,520.33 510.00,545.00 C 402.00,546.00 294.00,547.00 186.00,548.00 C 197.67,534.67 209.33,521.33 221.00,508.00 C 177.67,500.67 134.33,493.33 91.00,486.00 C 149.33,482.67 207.67,479.33 266.00,476.00 C 219.67,464.33 173.33,452.67 127.00,441.00 C 84.67,457.33 42.33,473.67 0.00,490.00 Z" fill="#D6CCC2" fill-opacity="0.9" stroke="none"/>
    <path d="M 978.00,478.00 C 979.67,481.00 981.33,484.00 983.00,487.00 C 984.33,486.33 985.67,485.67 987.00,485.00 C 993.00,487.00 999.00,489.00 1005.00,491.00 C 1019.33,492.67 1033.67,494.33 1048.00,496.00 C 1047.33,494.00 1046.67,492.00 1046.00,490.00 C 1049.67,490.33 1053.33,490.67 1057.00,491.00 C 1056.33,493.00 1055.67,495.00 1055.00,497.00 C 1074.00,498.33 1093.00,499.67 1112.00,501.00 C 1115.33,504.67 1118.67,508.33 1122.00,512.00 C 1126.00,512.33 1130.00,512.67 1134.00,513.00 C 1140.33,511.00 1146.67,509.00 1153.00,507.00 C 1165.00,511.00 1177.00,515.00 1189.00,519.00 C 1194.33,517.00 1199.67,515.00 1205.00,513.00 C 1213.33,515.00 1221.67,517.00 1230.00,519.00 C 1231.33,521.00 1232.67,523.00 1234.00,525.00 C 1235.00,524.00 1236.00,523.00 1237.00,522.00 C 1236.33,520.00 1235.67,518.00 1235.00,516.00 C 1236.33,512.33 1237.67,508.67 1239.00,505.00 C 1222.00,502.00 1205.00,499.00 1188.00,496.00 C 1178.67,496.33 1169.33,496.67 1160.00,497.00 C 1156.33,496.00 1152.67,495.00 1149.00,494.00 C 1148.00,492.33 1147.00,490.67 1146.00,489.00 C 1141.67,491.33 1137.33,493.67 1133.00,496.00 C 1126.00,497.00 1119.00,498.00 1112.00,499.00 C 1104.00,497.33 1096.00,495.67 1088.00,494.00 C 1085.33,492.00 1082.67,490.00 1080.00,488.00 C 1080.00,486.67 1080.00,485.33 1080.00,484.00 C 1082.67,483.00 1085.33,482.00 1088.00,481.00 C 1086.67,480.00 1085.33,479.00 1084.00,478.00 C 1079.00,478.33 1074.00,478.67 1069.00,479.00 C 1064.33,476.67 1059.67,474.33 1055.00,472.00 C 1042.67,471.33 1030.33,470.67 1018.00,470.00 C 1011.67,473.33 1005.33,476.67 999.00,480.00 C 992.00,479.33 985.00,478.67 978.00,478.00 Z" fill="#D6CCC2" fill-opacity="0.9" stroke="none"/>
  </g>
  <g id="layer-4-semantic_layer_4">
    <path d="M 9.00,16.00 C 47.33,27.00 85.67,38.00 124.00,49.00 C 127.33,108.67 130.67,168.33 134.00,228.00 C 112.00,232.67 90.00,237.33 68.00,242.00 C 58.67,215.67 49.33,189.33 40.00,163.00 C 26.67,210.00 13.33,257.00 0.00,304.00 C 3.00,289.67 6.00,275.33 9.00,261.00 C 54.33,289.33 99.67,317.67 145.00,346.00 C 157.00,323.67 169.00,301.33 181.00,279.00 C 186.67,302.67 192.33,326.33 198.00,350.00 C 132.00,350.33 66.00,350.67 0.00,351.00 C 0.00,386.33 0.00,421.67 0.00,457.00 C 107.67,444.67 215.33,432.33 323.00,420.00 C 324.00,443.00 325.00,466.00 326.00,489.00 C 447.00,482.00 568.00,475.00 689.00,468.00 C 668.67,406.33 648.33,344.67 628.00,283.00 C 644.33,237.00 660.67,191.00 677.00,145.00 C 650.00,180.67 623.00,216.33 596.00,252.00 C 601.00,312.33 606.00,372.67 611.00,433.00 C 589.33,439.33 567.67,445.67 546.00,452.00 C 535.67,432.00 525.33,412.00 515.00,392.00 C 503.33,414.00 491.67,436.00 480.00,458.00 C 481.67,437.00 483.33,416.00 485.00,395.00 C 437.00,398.33 389.00,401.67 341.00,405.00 C 413.33,382.00 485.67,359.00 558.00,336.00 C 518.00,291.67 478.00,247.33 438.00,203.00 C 436.67,228.00 435.33,253.00 434.00,278.00 C 421.67,264.67 409.33,251.33 397.00,238.00 C 398.67,158.67 400.33,79.33 402.00,0.00 C 392.33,88.33 382.67,176.67 373.00,265.00 C 357.00,242.67 341.00,220.33 325.00,198.00 C 309.00,209.00 293.00,220.00 277.00,231.00 C 269.33,154.00 261.67,77.00 254.00,0.00 C 255.00,73.00 256.00,146.00 257.00,219.00 C 244.33,211.00 231.67,203.00 219.00,195.00 C 199.33,230.33 179.67,265.67 160.00,301.00 C 157.33,200.67 154.67,100.33 152.00,0.00 C 104.33,5.33 56.67,10.67 9.00,16.00 Z" fill="#342D29" fill-opacity="0.9" stroke="none"/>
    <path d="M 735.00,0.00 C 730.00,31.00 725.00,62.00 720.00,93.00 C 728.67,89.67 737.33,86.33 746.00,83.00 C 745.00,92.33 744.00,101.67 743.00,111.00 C 730.33,118.33 717.67,125.67 705.00,133.00 C 700.33,154.00 695.67,175.00 691.00,196.00 C 711.00,199.67 731.00,203.33 751.00,207.00 C 773.67,235.33 796.33,263.67 819.00,292.00 C 822.67,308.33 826.33,324.67 830.00,341.00 C 824.67,370.67 819.33,400.33 814.00,430.00 C 819.67,448.67 825.33,467.33 831.00,486.00 C 836.33,484.67 841.67,483.33 847.00,482.00 C 883.00,497.33 919.00,512.67 955.00,528.00 C 962.00,514.67 969.00,501.33 976.00,488.00 C 970.33,486.33 964.67,484.67 959.00,483.00 C 958.67,478.00 958.33,473.00 958.00,468.00 C 962.67,469.67 967.33,471.33 972.00,473.00 C 970.00,464.33 968.00,455.67 966.00,447.00 C 1003.00,444.67 1040.00,442.33 1077.00,440.00 C 1069.67,433.33 1062.33,426.67 1055.00,420.00 C 1050.00,426.33 1045.00,432.67 1040.00,439.00 C 1029.33,436.00 1018.67,433.00 1008.00,430.00 C 994.67,433.00 981.33,436.00 968.00,439.00 C 962.00,428.67 956.00,418.33 950.00,408.00 C 955.00,407.67 960.00,407.33 965.00,407.00 C 957.67,400.67 950.33,394.33 943.00,388.00 C 958.00,389.00 973.00,390.00 988.00,391.00 C 971.33,386.00 954.67,381.00 938.00,376.00 C 938.00,367.00 938.00,358.00 938.00,349.00 C 933.67,349.00 929.33,349.00 925.00,349.00 C 930.67,346.33 936.33,343.67 942.00,341.00 C 940.33,332.00 938.67,323.00 937.00,314.00 C 930.33,318.00 923.67,322.00 917.00,326.00 C 882.67,264.67 848.33,203.33 814.00,142.00 C 793.67,132.00 773.33,122.00 753.00,112.00 C 757.33,87.00 761.67,62.00 766.00,37.00 C 774.67,24.67 783.33,12.33 792.00,0.00 C 780.33,0.00 768.67,0.00 757.00,0.00 C 755.67,12.67 754.33,25.33 753.00,38.00 C 751.67,25.33 750.33,12.67 749.00,0.00 C 744.33,0.00 739.67,0.00 735.00,0.00 Z" fill="#342D29" fill-opacity="0.9" stroke="none"/>
    <path d="M 1232.00,402.00 C 1230.67,407.00 1229.33,412.00 1228.00,417.00 C 1209.67,420.00 1191.33,423.00 1173.00,426.00 C 1201.00,427.33 1229.00,428.67 1257.00,430.00 C 1259.67,432.33 1262.33,434.67 1265.00,437.00 C 1260.33,444.00 1255.67,451.00 1251.00,458.00 C 1249.67,468.00 1248.33,478.00 1247.00,488.00 C 1249.33,490.00 1251.67,492.00 1254.00,494.00 C 1249.00,500.00 1244.00,506.00 1239.00,512.00 C 1236.67,523.00 1234.33,534.00 1232.00,545.00 C 1228.33,547.67 1224.67,550.33 1221.00,553.00 C 1221.67,559.00 1222.33,565.00 1223.00,571.00 C 1219.00,573.00 1215.00,575.00 1211.00,577.00 C 1214.67,579.67 1218.33,582.33 1222.00,585.00 C 1213.33,597.00 1204.67,609.00 1196.00,621.00 C 1195.00,627.00 1194.00,633.00 1193.00,639.00 C 1187.00,641.67 1181.00,644.33 1175.00,647.00 C 1170.67,667.00 1166.33,687.00 1162.00,707.00 C 1189.00,739.33 1216.00,771.67 1243.00,804.00 C 1255.00,811.33 1267.00,818.67 1279.00,826.00 C 1279.00,693.00 1279.00,560.00 1279.00,427.00 C 1276.00,428.00 1273.00,429.00 1270.00,430.00 C 1263.00,425.00 1256.00,420.00 1249.00,415.00 C 1243.00,415.00 1237.00,415.00 1231.00,415.00 C 1233.00,410.67 1235.00,406.33 1237.00,402.00 C 1235.33,402.00 1233.67,402.00 1232.00,402.00 Z" fill="#342D29" fill-opacity="0.9" stroke="none"/>
    <path d="M 983.00,91.00 C 983.33,176.33 983.67,261.67 984.00,347.00 C 976.67,342.67 969.33,338.33 962.00,334.00 C 959.00,343.33 956.00,352.67 953.00,362.00 C 963.67,368.67 974.33,375.33 985.00,382.00 C 1045.67,379.67 1106.33,377.33 1167.00,375.00 C 1160.67,368.67 1154.33,362.33 1148.00,356.00 C 1141.33,359.00 1134.67,362.00 1128.00,365.00 C 1125.33,356.33 1122.67,347.67 1120.00,339.00 C 1116.67,347.00 1113.33,355.00 1110.00,363.00 C 1105.33,363.00 1100.67,363.00 1096.00,363.00 C 1104.67,339.33 1113.33,315.67 1122.00,292.00 C 1111.67,314.00 1101.33,336.00 1091.00,358.00 C 1081.67,360.67 1072.33,363.33 1063.00,366.00 C 1063.67,351.33 1064.33,336.67 1065.00,322.00 C 1087.33,256.33 1109.67,190.67 1132.00,125.00 C 1113.33,176.67 1094.67,228.33 1076.00,280.00 C 1076.00,264.67 1076.00,249.33 1076.00,234.00 C 1086.33,212.33 1096.67,190.67 1107.00,169.00 C 1103.67,169.00 1100.33,169.00 1097.00,169.00 C 1099.00,155.33 1101.00,141.67 1103.00,128.00 C 1088.00,169.33 1073.00,210.67 1058.00,252.00 C 1051.67,242.00 1045.33,232.00 1039.00,222.00 C 1040.33,240.00 1041.67,258.00 1043.00,276.00 C 1025.67,296.00 1008.33,316.00 991.00,336.00 C 993.33,279.33 995.67,222.67 998.00,166.00 C 993.00,141.00 988.00,116.00 983.00,91.00 Z" fill="#342D29" fill-opacity="0.9" stroke="none"/>
    <path d="M 645.00,0.00 C 636.33,0.00 627.67,0.00 619.00,0.00 C 617.67,2.67 616.33,5.33 615.00,8.00 C 617.33,21.67 619.67,35.33 622.00,49.00 C 620.67,53.67 619.33,58.33 618.00,63.00 C 616.67,63.33 615.33,63.67 614.00,64.00 C 615.33,68.33 616.67,72.67 618.00,77.00 C 616.67,87.33 615.33,97.67 614.00,108.00 C 614.33,116.00 614.67,124.00 615.00,132.00 C 613.33,140.33 611.67,148.67 610.00,157.00 C 610.00,181.00 610.00,205.00 610.00,229.00 C 609.00,230.00 608.00,231.00 607.00,232.00 C 608.33,233.00 609.67,234.00 611.00,235.00 C 612.00,234.00 613.00,233.00 614.00,232.00 C 614.00,228.33 614.00,224.67 614.00,221.00 C 617.00,214.33 620.00,207.67 623.00,201.00 C 625.00,199.00 627.00,197.00 629.00,195.00 C 628.33,183.67 627.67,172.33 627.00,161.00 C 631.00,130.00 635.00,99.00 639.00,68.00 C 640.33,65.00 641.67,62.00 643.00,59.00 C 641.67,50.67 640.33,42.33 639.00,34.00 C 641.00,22.67 643.00,11.33 645.00,0.00 Z" fill="#342D29" fill-opacity="0.9" stroke="none"/>
    <path d="M 1202.00,307.00 C 1198.67,327.33 1195.33,347.67 1192.00,368.00 C 1190.33,371.00 1188.67,374.00 1187.00,377.00 C 1184.00,375.33 1181.00,373.67 1178.00,372.00 C 1175.00,373.00 1172.00,374.00 1169.00,375.00 C 1171.00,376.33 1173.00,377.67 1175.00,379.00 C 1173.33,383.67 1171.67,388.33 1170.00,393.00 C 1172.67,395.00 1175.33,397.00 1178.00,399.00 C 1180.00,397.00 1182.00,395.00 1184.00,393.00 C 1183.33,390.33 1182.67,387.67 1182.00,385.00 C 1188.00,383.67 1194.00,382.33 1200.00,381.00 C 1202.00,377.67 1204.00,374.33 1206.00,371.00 C 1207.67,371.33 1209.33,371.67 1211.00,372.00 C 1210.33,375.00 1209.67,378.00 1209.00,381.00 C 1229.67,382.67 1250.33,384.33 1271.00,386.00 C 1273.67,388.33 1276.33,390.67 1279.00,393.00 C 1279.00,387.33 1279.00,381.67 1279.00,376.00 C 1274.67,375.67 1270.33,375.33 1266.00,375.00 C 1266.33,373.00 1266.67,371.00 1267.00,369.00 C 1271.00,367.00 1275.00,365.00 1279.00,363.00 C 1279.00,348.00 1279.00,333.00 1279.00,318.00 C 1278.33,320.67 1277.67,323.33 1277.00,326.00 C 1274.67,326.33 1272.33,326.67 1270.00,327.00 C 1270.33,323.33 1270.67,319.67 1271.00,316.00 C 1273.67,312.67 1276.33,309.33 1279.00,306.00 C 1276.67,308.33 1274.33,310.67 1272.00,313.00 C 1268.33,310.67 1264.67,308.33 1261.00,306.00 C 1260.33,313.00 1259.67,320.00 1259.00,327.00 C 1255.33,325.00 1251.67,323.00 1248.00,321.00 C 1251.00,327.67 1254.00,334.33 1257.00,341.00 C 1254.33,350.33 1251.67,359.67 1249.00,369.00 C 1245.67,363.00 1242.33,357.00 1239.00,351.00 C 1236.33,355.67 1233.67,360.33 1231.00,365.00 C 1227.67,364.33 1224.33,363.67 1221.00,363.00 C 1223.00,355.33 1225.00,347.67 1227.00,340.00 C 1226.67,331.33 1226.33,322.67 1226.00,314.00 C 1224.00,315.00 1222.00,316.00 1220.00,317.00 C 1218.67,323.33 1217.33,329.67 1216.00,336.00 C 1213.67,336.33 1211.33,336.67 1209.00,337.00 C 1211.33,338.33 1213.67,339.67 1216.00,341.00 C 1213.33,344.33 1210.67,347.67 1208.00,351.00 C 1207.67,354.67 1207.33,358.33 1207.00,362.00 C 1204.33,362.33 1201.67,362.67 1199.00,363.00 C 1199.00,359.67 1199.00,356.33 1199.00,353.00 C 1201.67,349.33 1204.33,345.67 1207.00,342.00 C 1205.00,341.33 1203.00,340.67 1201.00,340.00 C 1203.67,328.00 1206.33,316.00 1209.00,304.00 C 1206.67,305.00 1204.33,306.00 1202.00,307.00 Z" fill="#342D29" fill-opacity="0.9" stroke="none"/>
    <path d="M 402.00,765.00 C 399.67,768.67 397.33,772.33 395.00,776.00 C 396.00,776.67 397.00,777.33 398.00,778.00 C 398.33,779.33 398.67,780.67 399.00,782.00 C 398.67,786.33 398.33,790.67 398.00,795.00 C 395.67,797.00 393.33,799.00 391.00,801.00 C 391.00,804.33 391.00,807.67 391.00,811.00 C 394.33,812.67 397.67,814.33 401.00,816.00 C 402.33,815.67 403.67,815.33 405.00,815.00 C 403.33,814.33 401.67,813.67 400.00,813.00 C 400.00,808.00 400.00,803.00 400.00,798.00 C 403.67,799.00 407.33,800.00 411.00,801.00 C 414.00,803.33 417.00,805.67 420.00,808.00 C 421.33,806.00 422.67,804.00 424.00,802.00 C 426.00,800.67 428.00,799.33 430.00,798.00 C 432.67,798.33 435.33,798.67 438.00,799.00 C 439.00,800.00 440.00,801.00 441.00,802.00 C 441.33,804.00 441.67,806.00 442.00,808.00 C 444.00,810.67 446.00,813.33 448.00,816.00 C 448.00,818.33 448.00,820.67 448.00,823.00 C 446.67,825.00 445.33,827.00 444.00,829.00 C 442.67,829.00 441.33,829.00 440.00,829.00 C 438.33,827.33 436.67,825.67 435.00,824.00 C 434.00,825.00 433.00,826.00 432.00,827.00 C 436.67,830.00 441.33,833.00 446.00,836.00 C 447.67,839.33 449.33,842.67 451.00,846.00 C 450.00,851.67 449.00,857.33 448.00,863.00 C 446.67,863.00 445.33,863.00 444.00,863.00 C 441.67,865.67 439.33,868.33 437.00,871.00 C 439.67,875.33 442.33,879.67 445.00,884.00 C 445.67,882.33 446.33,880.67 447.00,879.00 C 451.00,874.67 455.00,870.33 459.00,866.00 C 460.33,865.33 461.67,864.67 463.00,864.00 C 466.67,864.00 470.33,864.00 474.00,864.00 C 474.67,862.00 475.33,860.00 476.00,858.00 C 475.33,856.33 474.67,854.67 474.00,853.00 C 474.33,851.67 474.67,850.33 475.00,849.00 C 477.67,848.00 480.33,847.00 483.00,846.00 C 482.33,845.33 481.67,844.67 481.00,844.00 C 479.67,844.67 478.33,845.33 477.00,846.00 C 473.67,845.67 470.33,845.33 467.00,845.00 C 465.67,843.33 464.33,841.67 463.00,840.00 C 464.33,838.33 465.67,836.67 467.00,835.00 C 466.00,834.00 465.00,833.00 464.00,832.00 C 464.33,828.33 464.67,824.67 465.00,821.00 C 462.00,820.00 459.00,819.00 456.00,818.00 C 453.67,816.00 451.33,814.00 449.00,812.00 C 448.00,809.67 447.00,807.33 446.00,805.00 C 446.00,801.33 446.00,797.67 446.00,794.00 C 444.00,794.67 442.00,795.33 440.00,796.00 C 435.00,794.33 430.00,792.67 425.00,791.00 C 421.33,788.33 417.67,785.67 414.00,783.00 C 413.00,779.67 412.00,776.33 411.00,773.00 C 409.00,770.33 407.00,767.67 405.00,765.00 C 404.00,765.00 403.00,765.00 402.00,765.00 Z" fill="#342D29" fill-opacity="0.9" stroke="none"/>
  </g>
  <g id="layer-5-semantic_layer_5">
    <path d="M 756.00,111.00 C 764.67,98.00 773.33,85.00 782.00,72.00 C 799.33,79.00 816.67,86.00 834.00,93.00 C 821.33,100.33 808.67,107.67 796.00,115.00 C 816.00,147.00 836.00,179.00 856.00,211.00 C 861.00,179.00 866.00,147.00 871.00,115.00 C 884.33,100.00 897.67,85.00 911.00,70.00 C 900.33,111.00 889.67,152.00 879.00,193.00 C 889.67,196.00 900.33,199.00 911.00,202.00 C 903.33,214.33 895.67,226.67 888.00,239.00 C 913.67,243.67 939.33,248.33 965.00,253.00 C 967.00,268.33 969.00,283.67 971.00,299.00 C 974.67,229.00 978.33,159.00 982.00,89.00 C 986.00,161.67 990.00,234.33 994.00,307.00 C 1008.67,298.67 1023.33,290.33 1038.00,282.00 C 1042.00,249.00 1046.00,216.00 1050.00,183.00 C 1055.00,198.00 1060.00,213.00 1065.00,228.00 C 1077.00,192.33 1089.00,156.67 1101.00,121.00 C 1102.33,144.33 1103.67,167.67 1105.00,191.00 C 1114.33,160.33 1123.67,129.67 1133.00,99.00 C 1127.67,127.33 1122.33,155.67 1117.00,184.00 C 1126.67,186.67 1136.33,189.33 1146.00,192.00 C 1134.67,195.33 1123.33,198.67 1112.00,202.00 C 1099.00,239.67 1086.00,277.33 1073.00,315.00 C 1089.00,304.67 1105.00,294.33 1121.00,284.00 C 1155.33,289.00 1189.67,294.00 1224.00,299.00 C 1227.00,308.00 1230.00,317.00 1233.00,326.00 C 1248.33,316.33 1263.67,306.67 1279.00,297.00 C 1279.00,198.00 1279.00,99.00 1279.00,0.00 C 1117.00,0.00 955.00,0.00 793.00,0.00 C 780.67,37.00 768.33,74.00 756.00,111.00 Z" fill="#9FC4F1" fill-opacity="0.9" stroke="none"/>
    <path d="M 404.00,0.00 C 402.67,60.33 401.33,120.67 400.00,181.00 C 409.00,182.33 418.00,183.67 427.00,185.00 C 426.00,191.00 425.00,197.00 424.00,203.00 C 427.33,205.00 430.67,207.00 434.00,209.00 C 433.33,202.33 432.67,195.67 432.00,189.00 C 435.00,188.33 438.00,187.67 441.00,187.00 C 441.33,197.00 441.67,207.00 442.00,217.00 C 447.33,221.33 452.67,225.67 458.00,230.00 C 460.33,227.33 462.67,224.67 465.00,222.00 C 471.00,221.33 477.00,220.67 483.00,220.00 C 482.00,227.67 481.00,235.33 480.00,243.00 C 486.00,244.00 492.00,245.00 498.00,246.00 C 501.33,243.33 504.67,240.67 508.00,238.00 C 511.67,247.67 515.33,257.33 519.00,267.00 C 521.33,256.00 523.67,245.00 526.00,234.00 C 530.33,234.00 534.67,234.00 539.00,234.00 C 540.00,237.33 541.00,240.67 542.00,244.00 C 539.33,246.00 536.67,248.00 534.00,250.00 C 536.00,251.67 538.00,253.33 540.00,255.00 C 536.33,258.33 532.67,261.67 529.00,265.00 C 529.00,270.33 529.00,275.67 529.00,281.00 C 529.33,277.67 529.67,274.33 530.00,271.00 C 533.67,274.67 537.33,278.33 541.00,282.00 C 552.00,271.67 563.00,261.33 574.00,251.00 C 581.33,253.00 588.67,255.00 596.00,257.00 C 600.33,236.00 604.67,215.00 609.00,194.00 C 613.00,144.33 617.00,94.67 621.00,45.00 C 619.67,30.00 618.33,15.00 617.00,0.00 C 546.00,0.00 475.00,0.00 404.00,0.00 Z" fill="#9FC4F1" fill-opacity="0.9" stroke="none"/>
    <path d="M 154.00,0.00 C 152.00,12.33 150.00,24.67 148.00,37.00 C 150.67,40.00 153.33,43.00 156.00,46.00 C 153.33,48.67 150.67,51.33 148.00,54.00 C 146.67,73.67 145.33,93.33 144.00,113.00 C 149.67,117.33 155.33,121.67 161.00,126.00 C 165.00,123.00 169.00,120.00 173.00,117.00 C 171.67,120.67 170.33,124.33 169.00,128.00 C 173.33,130.00 177.67,132.00 182.00,134.00 C 181.00,138.67 180.00,143.33 179.00,148.00 C 187.67,147.00 196.33,146.00 205.00,145.00 C 198.67,140.00 192.33,135.00 186.00,130.00 C 185.67,123.67 185.33,117.33 185.00,111.00 C 195.00,122.00 205.00,133.00 215.00,144.00 C 226.00,140.33 237.00,136.67 248.00,133.00 C 245.33,131.33 242.67,129.67 240.00,128.00 C 241.67,115.00 243.33,102.00 245.00,89.00 C 242.67,74.33 240.33,59.67 238.00,45.00 C 241.67,35.67 245.33,26.33 249.00,17.00 C 253.67,42.00 258.33,67.00 263.00,92.00 C 269.67,96.33 276.33,100.67 283.00,105.00 C 279.00,111.33 275.00,117.67 271.00,124.00 C 272.33,129.00 273.67,134.00 275.00,139.00 C 283.33,143.33 291.67,147.67 300.00,152.00 C 293.33,153.67 286.67,155.33 280.00,157.00 C 280.00,159.33 280.00,161.67 280.00,164.00 C 283.00,163.33 286.00,162.67 289.00,162.00 C 293.00,169.00 297.00,176.00 301.00,183.00 C 314.33,184.00 327.67,185.00 341.00,186.00 C 344.67,189.67 348.33,193.33 352.00,197.00 C 350.33,199.33 348.67,201.67 347.00,204.00 C 360.67,201.33 374.33,198.67 388.00,196.00 C 390.67,130.67 393.33,65.33 396.00,0.00 C 351.67,0.00 307.33,0.00 263.00,0.00 C 265.33,3.00 267.67,6.00 270.00,9.00 C 264.67,9.33 259.33,9.67 254.00,10.00 C 255.00,14.67 256.00,19.33 257.00,24.00 C 250.33,16.00 243.67,8.00 237.00,0.00 C 209.33,0.00 181.67,0.00 154.00,0.00 Z" fill="#9FC4F1" fill-opacity="0.9" stroke="none"/>
    <path d="M 0.00,0.00 C 0.00,41.67 0.00,83.33 0.00,125.00 C 9.00,125.33 18.00,125.67 27.00,126.00 C 30.33,129.00 33.67,132.00 37.00,135.00 C 52.00,137.67 67.00,140.33 82.00,143.00 C 83.00,148.00 84.00,153.00 85.00,158.00 C 91.33,159.33 97.67,160.67 104.00,162.00 C 108.33,165.67 112.67,169.33 117.00,173.00 C 113.33,173.67 109.67,174.33 106.00,175.00 C 99.00,171.33 92.00,167.67 85.00,164.00 C 85.33,169.33 85.67,174.67 86.00,180.00 C 90.67,180.00 95.33,180.00 100.00,180.00 C 102.00,183.00 104.00,186.00 106.00,189.00 C 111.67,188.33 117.33,187.67 123.00,187.00 C 120.00,191.33 117.00,195.67 114.00,200.00 C 118.33,201.00 122.67,202.00 127.00,203.00 C 125.67,199.33 124.33,195.67 123.00,192.00 C 126.00,189.33 129.00,186.67 132.00,184.00 C 130.33,165.00 128.67,146.00 127.00,127.00 C 109.33,124.00 91.67,121.00 74.00,118.00 C 75.00,116.33 76.00,114.67 77.00,113.00 C 85.67,114.67 94.33,116.33 103.00,118.00 C 105.67,115.67 108.33,113.33 111.00,111.00 C 116.67,113.67 122.33,116.33 128.00,119.00 C 126.33,115.33 124.67,111.67 123.00,108.00 C 124.67,92.67 126.33,77.33 128.00,62.00 C 125.00,55.67 122.00,49.33 119.00,43.00 C 98.67,42.33 78.33,41.67 58.00,41.00 C 42.67,35.00 27.33,29.00 12.00,23.00 C 13.67,20.67 15.33,18.33 17.00,16.00 C 29.33,22.00 41.67,28.00 54.00,34.00 C 73.67,33.67 93.33,33.33 113.00,33.00 C 109.00,22.00 105.00,11.00 101.00,0.00 C 67.33,0.00 33.67,0.00 0.00,0.00 Z" fill="#9FC4F1" fill-opacity="0.9" stroke="none"/>
    <path d="M 734.00,0.00 C 704.67,0.00 675.33,0.00 646.00,0.00 C 644.33,10.00 642.67,20.00 641.00,30.00 C 642.67,35.33 644.33,40.67 646.00,46.00 C 640.33,84.00 634.67,122.00 629.00,160.00 C 629.67,169.67 630.33,179.33 631.00,189.00 C 636.67,178.67 642.33,168.33 648.00,158.00 C 663.33,144.67 678.67,131.33 694.00,118.00 C 692.00,114.00 690.00,110.00 688.00,106.00 C 687.67,96.67 687.33,87.33 687.00,78.00 C 683.67,67.00 680.33,56.00 677.00,45.00 C 677.67,40.33 678.33,35.67 679.00,31.00 C 681.67,30.33 684.33,29.67 687.00,29.00 C 686.67,31.67 686.33,34.33 686.00,37.00 C 688.33,36.33 690.67,35.67 693.00,35.00 C 691.67,42.33 690.33,49.67 689.00,57.00 C 691.33,62.33 693.67,67.67 696.00,73.00 C 696.33,79.67 696.67,86.33 697.00,93.00 C 698.67,95.67 700.33,98.33 702.00,101.00 C 704.33,101.33 706.67,101.67 709.00,102.00 C 711.67,100.00 714.33,98.00 717.00,96.00 C 718.67,91.67 720.33,87.33 722.00,83.00 C 723.00,69.33 724.00,55.67 725.00,42.00 C 728.00,28.00 731.00,14.00 734.00,0.00 Z" fill="#9FC4F1" fill-opacity="0.9" stroke="none"/>
    <path d="M 150.00,125.00 C 149.67,128.00 149.33,131.00 149.00,134.00 C 148.33,134.67 147.67,135.33 147.00,136.00 C 147.67,141.33 148.33,146.67 149.00,152.00 C 150.33,154.00 151.67,156.00 153.00,158.00 C 155.00,159.00 157.00,160.00 159.00,161.00 C 159.33,162.33 159.67,163.67 160.00,165.00 C 162.33,167.33 164.67,169.67 167.00,172.00 C 167.67,174.33 168.33,176.67 169.00,179.00 C 170.67,180.33 172.33,181.67 174.00,183.00 C 174.67,184.33 175.33,185.67 176.00,187.00 C 176.00,190.67 176.00,194.33 176.00,198.00 C 174.33,199.33 172.67,200.67 171.00,202.00 C 172.33,202.67 173.67,203.33 175.00,204.00 C 176.00,202.67 177.00,201.33 178.00,200.00 C 178.33,198.33 178.67,196.67 179.00,195.00 C 181.67,195.67 184.33,196.33 187.00,197.00 C 187.67,197.67 188.33,198.33 189.00,199.00 C 188.67,200.00 188.33,201.00 188.00,202.00 C 187.00,202.33 186.00,202.67 185.00,203.00 C 185.00,204.67 185.00,206.33 185.00,208.00 C 185.67,208.67 186.33,209.33 187.00,210.00 C 190.33,210.67 193.67,211.33 197.00,212.00 C 198.00,214.00 199.00,216.00 200.00,218.00 C 201.33,218.33 202.67,218.67 204.00,219.00 C 203.00,218.00 202.00,217.00 201.00,216.00 C 201.00,214.33 201.00,212.67 201.00,211.00 C 200.00,209.33 199.00,207.67 198.00,206.00 C 198.67,204.67 199.33,203.33 200.00,202.00 C 199.00,201.00 198.00,200.00 197.00,199.00 C 197.33,198.00 197.67,197.00 198.00,196.00 C 199.67,196.33 201.33,196.67 203.00,197.00 C 203.67,195.00 204.33,193.00 205.00,191.00 C 207.00,191.33 209.00,191.67 211.00,192.00 C 211.33,191.33 211.67,190.67 212.00,190.00 C 211.33,189.00 210.67,188.00 210.00,187.00 C 210.00,186.00 210.00,185.00 210.00,184.00 C 210.67,183.33 211.33,182.67 212.00,182.00 C 210.67,181.00 209.33,180.00 208.00,179.00 C 208.00,176.67 208.00,174.33 208.00,172.00 C 207.33,170.67 206.67,169.33 206.00,168.00 C 206.67,167.00 207.33,166.00 208.00,165.00 C 207.67,162.67 207.33,160.33 207.00,158.00 C 206.33,157.33 205.67,156.67 205.00,156.00 C 205.00,153.67 205.00,151.33 205.00,149.00 C 204.33,150.00 203.67,151.00 203.00,152.00 C 201.00,152.00 199.00,152.00 197.00,152.00 C 196.00,152.67 195.00,153.33 194.00,154.00 C 194.00,155.33 194.00,156.67 194.00,158.00 C 193.33,158.33 192.67,158.67 192.00,159.00 C 192.33,159.67 192.67,160.33 193.00,161.00 C 195.67,161.33 198.33,161.67 201.00,162.00 C 201.67,162.67 202.33,163.33 203.00,164.00 C 202.67,165.00 202.33,166.00 202.00,167.00 C 199.33,167.33 196.67,167.67 194.00,168.00 C 193.00,167.33 192.00,166.67 191.00,166.00 C 190.00,166.67 189.00,167.33 188.00,168.00 C 188.67,168.67 189.33,169.33 190.00,170.00 C 189.67,171.33 189.33,172.67 189.00,174.00 C 187.67,174.00 186.33,174.00 185.00,174.00 C 184.00,173.00 183.00,172.00 182.00,171.00 C 182.33,169.67 182.67,168.33 183.00,167.00 C 182.33,166.33 181.67,165.67 181.00,165.00 C 177.00,163.00 173.00,161.00 169.00,159.00 C 168.67,158.00 168.33,157.00 168.00,156.00 C 168.67,155.33 169.33,154.67 170.00,154.00 C 170.00,153.00 170.00,152.00 170.00,151.00 C 171.33,149.67 172.67,148.33 174.00,147.00 C 168.00,143.33 162.00,139.67 156.00,136.00 C 154.00,132.33 152.00,128.67 150.00,125.00 Z" fill="#9FC4F1" fill-opacity="0.9" stroke="none"/>
  </g>
  <g id="layer-6-semantic_layer_6">
    <path d="M 342.00,592.00 C 341.00,601.00 340.00,610.00 339.00,619.00 C 331.67,616.33 324.33,613.67 317.00,611.00 C 305.00,622.00 293.00,633.00 281.00,644.00 C 281.00,660.67 281.00,677.33 281.00,694.00 C 274.00,700.00 267.00,706.00 260.00,712.00 C 266.67,720.33 273.33,728.67 280.00,737.00 C 267.33,732.67 254.67,728.33 242.00,724.00 C 238.00,770.67 234.00,817.33 230.00,864.00 C 238.33,882.00 246.67,900.00 255.00,918.00 C 279.00,931.67 303.00,945.33 327.00,959.00 C 371.67,959.00 416.33,959.00 461.00,959.00 C 475.67,947.67 490.33,936.33 505.00,925.00 C 508.00,935.33 511.00,945.67 514.00,956.00 C 530.33,957.00 546.67,958.00 563.00,959.00 C 597.33,938.00 631.67,917.00 666.00,896.00 C 666.67,885.00 667.33,874.00 668.00,863.00 C 657.67,859.33 647.33,855.67 637.00,852.00 C 640.00,846.67 643.00,841.33 646.00,836.00 C 652.67,837.33 659.33,838.67 666.00,840.00 C 666.67,819.67 667.33,799.33 668.00,779.00 C 660.33,775.33 652.67,771.67 645.00,768.00 C 642.00,745.67 639.00,723.33 636.00,701.00 C 629.00,697.67 622.00,694.33 615.00,691.00 C 612.00,697.00 609.00,703.00 606.00,709.00 C 602.33,705.00 598.67,701.00 595.00,697.00 C 596.67,676.33 598.33,655.67 600.00,635.00 C 606.00,641.00 612.00,647.00 618.00,653.00 C 612.33,643.67 606.67,634.33 601.00,625.00 C 590.33,623.33 579.67,621.67 569.00,620.00 C 560.67,609.67 552.33,599.33 544.00,589.00 C 533.00,593.33 522.00,597.67 511.00,602.00 C 493.33,593.00 475.67,584.00 458.00,575.00 C 456.00,579.00 454.00,583.00 452.00,587.00 C 447.67,582.33 443.33,577.67 439.00,573.00 C 425.00,576.33 411.00,579.67 397.00,583.00 C 394.67,592.33 392.33,601.67 390.00,611.00 C 387.67,606.33 385.33,601.67 383.00,597.00 C 369.33,595.33 355.67,593.67 342.00,592.00 Z" fill="#B94163" fill-opacity="0.9" stroke="none"/>
  </g>
</svg>
